<?xml version="1.0" encoding="utf-8"?><!-- Uploaded to: SVG Repo, www.svgrepo.com, Generator: SVG Repo Mixer Tools -->
<svg width="800px" height="800px" viewBox="0 0 128 128" xmlns="http://www.w3.org/2000/svg" xmlns:xlink="http://www.w3.org/1999/xlink" aria-hidden="true" role="img" class="iconify iconify--noto" preserveAspectRatio="xMidYMid meet"><path d="M86.12 154.77v-.28" fill="none"></path><path d="M120.77 11.74c-7.7 2.94-31.25 9.63-56.77 9.65c-25.52-.02-49.07-6.71-56.77-9.65c-1.42-.54-2.87.84-2.75 2.35C11.14 31.72 35.28 50.73 64 50.77c28.72-.04 52.86-19.06 59.52-36.68c.12-1.51-1.33-2.89-2.75-2.35z" fill="#424242"></path><path d="M100.04 31.58c-2.73-1.56-8.23-2.65-13.18-2.91c-11.24-.61-14.91 3.16-22.86 3.18c-7.95-.02-11.62-3.79-22.86-3.18c-4.95.27-10.45 1.36-13.18 2.91c-5.26 3-4.34 6.61-.53 8.88c9.93 5.91 22.68 12.15 35.68 12.17c.3 0 .59-.01.89-.02c.3 0 .59.02.89.02c13-.02 25.75-6.26 35.68-12.17c3.81-2.27 4.72-5.88-.53-8.88z" fill="#c41b59"></path><radialGradient id="IconifyId17ecdb2904d178eab21212" cx="66.964" cy="27.812" r="74.751" gradientTransform="matrix(1 0 0 1.0804 0 -2.003)" gradientUnits="userSpaceOnUse"><stop offset=".053" stop-color="#e92c6c"></stop><stop offset="1" stop-color="#f06a97"></stop></radialGradient><path d="M110.89 76.66c-3.05-30.02-8.19-37.72-13.47-40.53c-6.7-3.56-12.97-3.02-16.37-2.32c-9.28 1.93-10.92 3.58-15.72 3.58s-7.33-1.64-16.6-3.57c-3.4-.71-9.67-1.25-16.37 2.32c-5.28 2.81-10.42 10.51-13.47 40.53c-2.04 20.05 11.73 40.53 45.97 40.53h.06c34.24-.01 48-20.49 45.97-40.54z" fill="url(#IconifyId17ecdb2904d178eab21212)"></path><linearGradient id="IconifyId17ecdb2904d178eab21213" gradientUnits="userSpaceOnUse" x1="64.885" y1="39.355" x2="64.885" y2="88.951"><stop offset="0" stop-color="#c41b59"></stop><stop offset="1" stop-color="#c41b59" stop-opacity="0"></stop></linearGradient><path d="M64 33.3c-3.04 0-22.45-1.12-16.55.31c6.95 1.69 9.34 5.7 11.88 11.55C64 55.9 62.77 83.2 64.63 83.39c1.86.2 3.59-14.65 3.98-32.63c.3-13.83 9.26-17.19 14.81-17.41c.01.01-16.38-.05-19.42-.05z" fill="url(#IconifyId17ecdb2904d178eab21213)"></path><radialGradient id="IconifyId17ecdb2904d178eab21214" cx="65.072" cy="72.22" r="73.436" gradientTransform="matrix(.9546 0 0 .5017 2.917 34.337)" gradientUnits="userSpaceOnUse"><stop offset=".672" stop-color="#ff9cbd" stop-opacity="0"></stop><stop offset="1" stop-color="#ff9cbd"></stop></radialGradient><path d="M22.26 78.08c0-15.55 6.61 7.48 42.6 7.48s42.12-21.76 42.12-6.22s-19.57 29.39-42.12 29.39s-42.6-15.11-42.6-30.65z" opacity=".75" fill="url(#IconifyId17ecdb2904d178eab21214)"></path></svg>